<!--version="1.0" encoding="UTF-8"--><!DOCTYPE html PUBLIC "-//W3C//DTD SVG 1.1//EN" "http://www.w3.org/Graphics/SVG/1.1/DTD/svg11.dtd"><!-- Creator: CorelDRAW --><svg xmlns="http://www.w3.org/2000/svg" xml:space="preserve" width="2048" height="2048" style="fill-rule: evenodd; clip-rule: evenodd;" viewBox="0 0 2048 2048" preserveAspectRatio="xMidYMid meet" zoomAndPan="magnify" version="1.1" contentScriptType="application/ecmascript" contentStyleType="text/css"><defs><style type="text/css" xml:space="preserve">.fil0 { fill: rgb(66, 165, 245); }.fil1 { fill: white; fill-rule: nonzero; }</style></defs><g id="Layer_x0020_1"><rect class="fil0" width="2048" height="2048" rx="256.001" ry="256.001"/><path class="fil1" d="M1567.09 1567.15c-138.97 138.97-330.973 224.906-543.108 224.906-424.068 0-767.99-343.947-767.99-768.014 0-423.903 344.058-768.096 767.99-768.096 424.134 0 768.014 343.99 768.014 768.096 0 212.134-85.936 404.14-224.906 543.108zm-423.065-178.48c-.808.287-1.592.622-2.35 1.003-2.698.824-7.1 2.873-9.387 4.54-3.9 1.878-9.145 5.99-11.795 9.592a19.967 19.967 0 0 0-1.9 2.222 19.812 19.812 0 0 0-2.508 2.825c-.988 1.05-1.719 2.08-2.51 3.269a19.928 19.928 0 0 0-2.697 4.357 19.97 19.97 0 0 0-2.737 6.173 27.834 27.834 0 0 0-1.414 4.48c-.514 1.308-.977 2.84-1.373 4.14-1.744 3.732-2.54 8.803-2.056 12.981a32.65 32.65 0 0 0-.935 4.69 20.15 20.15 0 0 0-.45 4.228v9.062c0 1.24.11 2.361.31 3.45.001 1.163.104 2.339.315 3.513 0 1.6.015 3.01.296 4.61-.005 1.797.038 3.524.33 5.294 0 2.436-.026 4.476.558 6.9.508 3.208 1.788 7.092 3.505 9.786v7.071a4.98 4.98 0 0 0 .94 2.916c0 11.062 8.932 20.027 20 20.027h9.46c2.6 0 5.147-.505 7.51-1.463a19.925 19.925 0 0 0 8.195-2.74l.708-.308a19.895 19.895 0 0 0 8.776-4.366c3.248-1.631 5.173-3.742 7.626-6.193a19.966 19.966 0 0 0 3.969-5.394c.506-.59.983-1.213 1.425-1.87a20.052 20.052 0 0 0 7.656-9.84c1.71-1.71 3.012-3.199 4.18-5.361a20.085 20.085 0 0 0 8.293-8.463l.806-.807a20.054 20.054 0 0 0 5.676-4.357 20.17 20.17 0 0 0 2.563-2.821 20.087 20.087 0 0 0 5.838-6.91 59.282 59.282 0 0 0 2.383-2.407 20.08 20.08 0 0 0 4.296-5.556l6.76-2.836h6.688c.33 0 .658-.032.98-.097l6.25-1.25c1.687-.337 3.542-.88 5.233-1.302l4.402-1.1h5.635c1.008 0 2.234-.405 3.22-.652a19.9 19.9 0 0 0 6.504-1.444l2.507-.503c1.12-.224 2.314-1.033 3.372-1.773 1.428-.12 4.528-.618 5.765-1.371a19.997 19.997 0 0 0 5.943-3.722c.915-.52 1.722-1.123 2.224-2.19l.522-.552a20.016 20.016 0 0 0 5.064-7.236 19.832 19.832 0 0 0 2.371-5.987 19.967 19.967 0 0 0 1.698-6.21 19.894 19.894 0 0 0 1.353-5.406c3.406-5.709 3.644-12.502 1.146-18.236l.236-.27a19.858 19.858 0 0 0 2.497-2.589 19.837 19.837 0 0 0 2.83-2.781 19.876 19.876 0 0 0 3.778-4.19c2.214-2.4 4.719-4.319 6.58-7.076l3.7-3.699c1.892-1.892 3.406-3.385 4.762-5.778 1.937-1.938 3.95-3.754 5.46-6.06a19.973 19.973 0 0 0 2.379-3.465c1.08-1.337 2.175-3.116 3.113-4.524.677-1.016 1.376-2.015 1.96-3.091a19.978 19.978 0 0 0 2.329-3.605l.228-.33a19.88 19.88 0 0 0 3.3-4.699c.452-.68.883-1.34 1.273-2.06 1.1-1.35 1.839-2.648 2.602-4.175 1.85-3.456 2.611-7.458 2.297-11.366 1.312-1.575 2.134-3.083 3.034-4.884 2.961-5.924 2.857-14.184-.303-20.004v-5.072a4.99 4.99 0 0 0-2.145-4.105 4.932 4.932 0 0 0-.567-.678l.002-.001c-.785-.786-1.55-1.688-2.552-2.19l-1.774-.886c-.575-.288-.9-.94-1.438-1.3l-1.369-.913c-.104-9.1-6.315-16.964-15.09-19.18a20.084 20.084 0 0 0-11.84-3.623c-11.134 0-20.15 8.827-20.15 20v6.25a19.867 19.867 0 0 0-1.6 2.646 20.09 20.09 0 0 0-2.618 3.894c-1.282 1.28-2.557 2.476-3.647 3.938-.95.71-1.75 1.46-2.583 2.291a19.908 19.908 0 0 0-6.29 5.066l-.29.244c-2.2 1.105-3.847 2.414-5.574 4.14-3.718 1.912-6.53 5.179-9.46 8.11-.667.343-1.319.725-1.952 1.147-1.649.347-2.775-.102-4.329 1.004-2.482.36-5.173 1.245-7.554 2.022-2.018.287-3.893.905-5.785 1.64a19.91 19.91 0 0 0-5.088 1.62c-2.192.45-3.777 1.16-5.743 2.107-1.432.455-2.935.963-4.28 1.633l-1.689.845c-.82.166-1.633.386-2.432.655a19.948 19.948 0 0 0-6.557 1.34c-3.05 0-5.513.297-8.381 1.46a19.882 19.882 0 0 0-9.432 3.552c-.47.152-.933.32-1.387.505a19.943 19.943 0 0 0-12.406 6.136 20.09 20.09 0 0 0-5.684 4.352 20.092 20.092 0 0 0-1.988 2.085c-1.411 1.168-2.805 2.676-4.12 3.992-2.058 2.06-3.634 3.688-5.005 6.364-1.513 1.428-2.974 2.964-4.448 4.438-.907.906-1.824 1.785-2.644 2.774-2.498 2.065-5.074 4.961-6.5 7.804a19.885 19.885 0 0 0-3.865 6.89 19.92 19.92 0 0 0-2.188 3.988c-.211.355-.497.994-.758 1.257zm-57.776-141.193c17.827-23.883 34.022-50.223 43.577-68.412l.125-.374c8.436-16.5 26.886-47.288 48.794-73.663 13.34-16.06 27.515-30.015 40.25-36.493l.024.048c22.5-11.219 45.402-23.46 64.569-34.875 17.91-10.667 31.936-20.615 38.831-28.524 11.379-11.377 23.388-20.654 28.329-36.894 7.063-23.228.713-42.838-33.206-53.156l-.25-.126c-13.6-4.04-29.196-5.38-44.432-6.688-9.086-.78-17.804 33.77-17.804 16.122 0-28.765-22.747-59.968-38.19-83.494-1.592-2.505.474-21.165 2.8-39.825 4.237 9.172 8.035 17.017 10.795 22.123l-.036.02c13.319 25.24 42.564 80.65 95.59 70.883l.008.037c16.856-3 47.187-10.58 72.914-18.09 24.983-7.29 47.339-15.804 54.684-22.752 6.18-6.18 11.284-13.581 11.65-22.599 8.098 7.102 15.49 13.648 21.333 18.821 7.22 6.39 12.79 11.322 13.92 12.247l.028-.033c8.84 7.507 21.176 18.962 29.445 30.255 3.418 4.668 5.831 8.31 5.831 9.283 0 26.073.116 3.609.075 10.988-.247 43.204-.969 169.481 12.879 186.366 13.65 16.648 29.005 18.667 46.15 4.566l.625-.5c4.73-4.077 13.358-15.073 24.903-29.791 14.753-18.807 35.197-44.868 49.73-62.106 8.962 14.613 19.03 29.96 26.28 41.01 8.967 13.726 17.788 27.552 28.283 40.191a713.322 713.322 0 0 0 3.239-67.998c0-194.365-78.805-370.424-206.238-497.872-106.778-106.788-244.644-176.527-393.851-198.604-.13 12.84 4.595 24.75 12.183 34.948-11.573-.376-25.086-.608-38.644.205-24.979 1.495-48.418 2.902-63.917 6.07h-.125c-57.818 12.186-73.056 37.478-66.977 66.326 6.291 29.847 48.046 53.765 70.562 64.904.684 3.163 1.428 6.757 2.203 10.497 7.123 34.406 15.696 75.786 49.565 75.786 16.337 0 25.293-6.16 32.113-13.212 8.632 2.83 12.633 10.245 11.09 19.03l-.043-.008c-.023.115-3.455 2.532-10.289 7.09-4.956 3.307-11.102 6.081-18.238 7.247-12-2.418-49.43-12.138-68.256-42.047l-.023.014c-35.56-57.16-88.132-93.698-100.337-101.706-10.799-9.758-51.67-44.006-96.077-46.528-22.281-1.267-77.244 26.983-77.4 27.063l-6.5 4.5c-.267.234-93.547 81.41-103.781 101.8-15.867 31.734-46.706 99.09-39.416 133.301l.025-.004c.509 2.442 1.07 5.448 1.672 8.652 6.893 36.812 17.718 94.591 77.675 108.253l-.013.057c19.793 4.674 30.904 18.536 38.415 27.907 6.922 8.639 12.398 15.465 22.064 20.33l2.105 1.08c-2.997 2.95-5.764 6.599-8.255 11.076l.043.024c-5.587 9.995-13.317 34.555-17.986 59.934-3.632 19.745-5.84 41.034-4.468 58.123 1.133 14.042-5.84 39.158-12.558 63.364-5.565 20.052-10.986 39.584-12.948 56.107-2.818 23.85-.511 109.615 15.046 173.847 11.517 47.545 31.82 86.435 65.756 94.758l-.016.06c28.815 7.165 76.054.055 122.368-12.527 57.276-15.56 116.69-40.507 136.17-56.425l.125-.125c15.353-12.589 31.17-30.76 45.426-49.858zm321.809-439.752c5.598-5.196 8.459-7.77 1.649-.53-.274.13-.832.306-1.65.53zM813.515 868.39c2.532-.315 1.259.454-.916 1.654-1.476.815-3.367 1.828-4.764 2.835a80.824 80.824 0 0 0-.035-4.22c1.93.026 3.796-.088 5.708-.327l.007.058zm226.518-440.478c-4.078-2.464-6.845-4.55-7.107-5.794-.962-4.569 1.951 1.503 7.107 5.794z"/><path class="fil1" d="M1156.72 1430.65c.19.014.41.014.663.002-3.657-1.354-5.215-1.905-.663-.002z"/></g></svg>