<svg xmlns="http://www.w3.org/2000/svg" xml:space="preserve" width="2048" height="2048" style="shape-rendering:geometricPrecision;text-rendering:geometricPrecision;image-rendering:optimizeQuality;fill-rule:evenodd;clip-rule:evenodd"><defs><style>.fil1{fill:#fff;fill-rule:nonzero}</style></defs><g id="Layer_x0020_1"><rect width="2048" height="2048" rx="256.001" ry="256.001" style="fill:#42a5f5"/><path class="fil1" d="M1567.09 1567.15c-138.97 138.97-330.973 224.906-543.108 224.906-424.068 0-767.989-343.947-767.989-768.014 0-423.903 344.057-768.096 767.989-768.096 424.134 0 768.014 343.989 768.014 768.096 0 212.134-85.936 404.139-224.906 543.108zm-423.065-178.479c-.808.286-1.592.621-2.35 1.002-2.698.824-7.1 2.873-9.387 4.54-3.9 1.878-9.145 5.99-11.795 9.591a19.967 19.967 0 0 0-1.9 2.223 19.811 19.811 0 0 0-2.508 2.824c-.988 1.05-1.719 2.081-2.51 3.27a19.928 19.928 0 0 0-2.696 4.357 19.97 19.97 0 0 0-2.738 6.173 27.834 27.834 0 0 0-1.415 4.48c-.514 1.307-.977 2.84-1.373 4.139-1.744 3.732-2.54 8.803-2.056 12.981a32.65 32.65 0 0 0-.935 4.69 20.15 20.15 0 0 0-.45 4.227v9.062c0 1.24.11 2.361.31 3.45.001 1.164.104 2.339.316 3.513 0 1.6.014 3.01.295 4.61-.005 1.797.038 3.524.33 5.294 0 2.436-.025 4.476.558 6.9.507 3.208 1.787 7.092 3.504 9.786v7.071c0 1.084.349 2.094.94 2.916 0 11.063 8.932 20.027 20 20.027h9.46c2.6 0 5.147-.505 7.51-1.463a19.925 19.925 0 0 0 8.195-2.74l.708-.308a19.895 19.895 0 0 0 8.776-4.366c3.248-1.631 5.173-3.742 7.626-6.193a19.966 19.966 0 0 0 3.969-5.394c.507-.589.984-1.213 1.425-1.87a20.052 20.052 0 0 0 7.656-9.84c1.71-1.71 3.012-3.199 4.18-5.361a20.085 20.085 0 0 0 8.293-8.463l.806-.807a20.054 20.054 0 0 0 5.677-4.357 20.171 20.171 0 0 0 2.563-2.821 20.087 20.087 0 0 0 5.84-6.911 59.282 59.282 0 0 0 2.383-2.406 20.081 20.081 0 0 0 4.295-5.556l6.76-2.837h6.688c.33 0 .658-.032.98-.097l6.25-1.25c1.688-.337 3.542-.88 5.233-1.302l4.402-1.1h5.635c1.008 0 2.234-.405 3.221-.652a19.9 19.9 0 0 0 6.503-1.444l2.508-.502c1.12-.225 2.315-1.034 3.372-1.773 1.43-.12 4.53-.618 5.766-1.371a19.997 19.997 0 0 0 5.943-3.722c.916-.522 1.722-1.124 2.224-2.192l.523-.552a20.016 20.016 0 0 0 5.063-7.235 19.832 19.832 0 0 0 2.372-5.987 19.967 19.967 0 0 0 1.698-6.21 19.894 19.894 0 0 0 1.354-5.406c3.405-5.708 3.642-12.502 1.144-18.236l.236-.27a19.858 19.858 0 0 0 2.497-2.589 19.837 19.837 0 0 0 2.831-2.781 19.876 19.876 0 0 0 3.779-4.19c2.213-2.4 4.718-4.319 6.58-7.076l3.699-3.699c1.892-1.892 3.406-3.385 4.762-5.778 1.937-1.938 3.95-3.754 5.461-6.06a19.973 19.973 0 0 0 2.378-3.465c1.08-1.337 2.177-3.116 3.114-4.524.677-1.017 1.376-2.016 1.961-3.092a19.978 19.978 0 0 0 2.328-3.604l.228-.33a19.879 19.879 0 0 0 3.301-4.699c.451-.679.882-1.34 1.272-2.06 1.101-1.35 1.84-2.648 2.602-4.175 1.85-3.457 2.612-7.458 2.297-11.367 1.313-1.575 2.135-3.082 3.035-4.884 2.96-5.924 2.857-14.183-.304-20.004l.001-5.072c0-1.7-.848-3.201-2.146-4.105a4.932 4.932 0 0 0-.567-.677l.002-.001c-.786-.785-1.55-1.688-2.553-2.19l-1.774-.886c-.575-.288-.899-.94-1.437-1.3l-1.37-.913c-.103-9.1-6.313-16.964-15.088-19.18a20.084 20.084 0 0 0-11.841-3.622c-11.134 0-20.15 8.827-20.15 20v6.25a19.867 19.867 0 0 0-1.6 2.647 20.089 20.089 0 0 0-2.618 3.894c-1.281 1.28-2.557 2.475-3.647 3.937-.95.711-1.75 1.46-2.583 2.292a19.908 19.908 0 0 0-6.29 5.067l-.29.243c-2.2 1.106-3.847 2.414-5.574 4.141-3.718 1.911-6.529 5.178-9.46 8.11-.666.342-1.318.725-1.951 1.146-1.65.348-2.776-.101-4.33 1.004-2.482.36-5.172 1.245-7.554 2.022-2.018.287-3.892.905-5.785 1.64a19.91 19.91 0 0 0-5.088 1.621c-2.192.45-3.777 1.159-5.742 2.106-1.433.455-2.935.963-4.28 1.634l-1.69.844c-.82.167-1.633.386-2.432.656a19.948 19.948 0 0 0-6.557 1.339c-3.05 0-5.512.298-8.38 1.461a19.882 19.882 0 0 0-9.431 3.552c-.47.15-.933.32-1.387.504a19.943 19.943 0 0 0-12.407 6.136 20.091 20.091 0 0 0-5.684 4.352 20.092 20.092 0 0 0-1.987 2.085c-1.412 1.168-2.806 2.676-4.121 3.992-2.058 2.06-3.633 3.689-5.005 6.364-1.513 1.429-2.974 2.965-4.448 4.44-.906.905-1.823 1.784-2.643 2.773-2.498 2.065-5.074 4.962-6.5 7.804a19.885 19.885 0 0 0-3.865 6.891 19.92 19.92 0 0 0-2.188 3.987c-.211.355-.497.994-.758 1.257zm-57.776-141.194c17.828-23.883 34.023-50.223 43.578-68.412l.125-.374c8.436-16.502 26.886-47.29 48.794-73.665 13.34-16.059 27.515-30.014 40.25-36.492l.024.048c22.5-11.219 45.402-23.461 64.569-34.875 17.91-10.667 31.937-20.615 38.832-28.524 11.378-11.377 23.387-20.654 28.328-36.894 7.064-23.227.714-42.837-33.205-53.155l-.25-.126c-13.6-4.04-29.196-5.38-44.432-6.688-9.086-.78-17.804 33.77-17.804 16.122 0-28.765-22.747-59.968-38.19-83.494-1.592-2.505.474-21.165 2.8-39.825 4.237 9.172 8.035 17.017 10.795 22.123l-.036.019c13.318 25.24 42.564 80.65 95.59 70.884l.008.038c16.856-3 47.187-10.58 72.914-18.09 24.984-7.291 47.34-15.804 54.685-22.752 6.18-6.18 11.284-13.581 11.65-22.599 8.098 7.102 15.49 13.648 21.333 18.82 7.22 6.39 12.79 11.323 13.921 12.248l.027-.033c8.84 7.506 21.176 18.961 29.445 30.254 3.418 4.667 5.831 8.31 5.831 9.283 0 26.073.116 3.608.075 10.988-.247 43.204-.969 169.481 12.878 186.366 13.65 16.648 29.006 18.667 46.15 4.566l.626-.5c4.73-4.077 13.358-15.073 24.903-29.792 14.753-18.806 35.197-44.867 49.73-62.106 8.962 14.613 19.03 29.96 26.279 41.01 8.968 13.726 17.788 27.552 28.284 40.191a713.323 713.323 0 0 0 3.238-68c0-194.364-78.804-370.423-206.238-497.871-106.778-106.788-244.644-176.527-393.85-198.604-.13 12.84 4.595 24.75 12.182 34.948-11.57-.376-25.084-.608-38.642.205-24.979 1.496-48.418 2.903-63.918 6.072h-.124c-57.817 12.185-73.056 37.477-66.976 66.325 6.291 29.847 48.046 53.765 70.562 64.904.684 3.163 1.428 6.757 2.203 10.497 7.123 34.406 15.696 75.786 49.565 75.786 16.337 0 25.293-6.16 32.113-13.212 8.632 2.83 12.633 10.244 11.09 19.029l-.044-.008c-.023.115-3.455 2.532-10.289 7.09-4.956 3.307-11.102 6.081-18.238 7.247-12-2.417-49.43-12.137-68.256-42.046l-.023.014c-35.56-57.16-88.133-93.698-100.337-101.706-10.799-9.76-51.67-44.007-96.077-46.53-22.281-1.266-77.244 26.984-77.4 27.064l-6.5 4.5c-.267.234-93.547 81.409-103.781 101.8-15.867 31.734-46.706 99.09-39.416 133.301l.025-.004c.509 2.442 1.07 5.448 1.672 8.652 6.893 36.812 17.718 94.591 77.675 108.253l-.013.057c19.794 4.674 30.905 18.536 38.416 27.907 6.922 8.637 12.398 15.464 22.064 20.33l2.106 1.08c-2.997 2.95-5.764 6.598-8.255 11.075l.043.024c-5.587 9.995-13.317 34.555-17.986 59.934-3.632 19.745-5.84 41.034-4.468 58.123 1.134 14.042-5.839 39.158-12.557 63.364-5.565 20.051-10.986 39.583-12.948 56.106-2.818 23.85-.511 109.615 15.046 173.847 11.517 47.545 31.82 86.435 65.756 94.758l-.016.06c28.815 7.165 76.054.055 122.368-12.527 57.276-15.56 116.69-40.508 136.17-56.425l.125-.125c15.353-12.589 31.17-30.76 45.426-49.858zm321.81-439.752c5.598-5.196 8.46-7.77 1.649-.53-.274.13-.832.306-1.649.53zm-594.544 60.666c2.532-.316 1.26.453-.915 1.653-1.476.815-3.366 1.828-4.764 2.835a80.824 80.824 0 0 0-.035-4.22c1.93.027 3.795-.087 5.707-.326l.007.058zm226.518-440.479c-4.078-2.464-6.844-4.55-7.107-5.794-.962-4.569 1.951 1.503 7.107 5.794z"/><path class="fil1" d="M1156.72 1430.65c.189.014.41.014.663.002-3.657-1.354-5.215-1.905-.663-.002z"/></g></svg>
